{"asset":{"version":"2.0","generator":"Blockbench 5.0.7 glTF exporter"},"scenes":[{"nodes":[0,1,2,3],"name":"blockbench_export"}],"scene":0,"nodes":[{"translation":[-7.114462288676523e-17,0,0],"name":"trunk","mesh":0},{"name":"leaves","mesh":1},{"name":"branches","mesh":2},{"name":"full_tree","mesh":3}],"bufferViews":[{"buffer":0,"byteOffset":0,"byteLength":3888,"target":34962,"byteStride":12},{"buffer":0,"byteOffset":3888,"byteLength":3888,"target":34962,"byteStride":12},{"buffer":0,"byteOffset":7776,"byteLength":2592,"target":34962,"byteStride":8},{"buffer":0,"byteOffset":10368,"byteLength":936,"target":34963},{"buffer":0,"byteOffset":11304,"byteLength":4032,"target":34962,"byteStride":12},{"buffer":0,"byteOffset":15336,"byteLength":4032,"target":34962,"byteStride":12},{"buffer":0,"byteOffset":19368,"byteLength":2688,"target":34962,"byteStride":8},{"buffer":0,"byteOffset":22056,"byteLength":864,"target":34963},{"buffer":0,"byteOffset":22920,"byteLength":480,"target":34962,"byteStride":12},{"buffer":0,"byteOffset":23400,"byteLength":480,"target":34962,"byteStride":12},{"buffer":0,"byteOffset":23880,"byteLength":320,"target":34962,"byteStride":8},{"buffer":0,"byteOffset":24200,"byteLength":120,"target":34963},{"buffer":0,"byteOffset":24320,"byteLength":8400,"target":34962,"byteStride":12},{"buffer":0,"byteOffset":32720,"byteLength":8400,"target":34962,"byteStride":12},{"buffer":0,"byteOffset":41120,"byteLength":5600,"target":34962,"byteStride":8},{"buffer":0,"byteOffset":46720,"byteLength":120,"target":34963},{"buffer":0,"byteOffset":46840,"byteLength":936,"target":34963},{"buffer":0,"byteOffset":47776,"byteLength":864,"target":34963}],"buffers":[{"byteLength":48640,"uri":"data:application/octet-stream;base64,"}],"accessors":[{"bufferView":0,"componentType":5126,"count":324,"max":[1.8580056428909302,16,1.3137460947036743],"min":[-2.5283360481262207,-8.881784197001252e-16,-2.752772569656372],"type":"VEC3"},{"bufferView":1,"componentType":5126,"count":324,"max":[1,1,1],"min":[-1,-1,-1],"type":"VEC3"},{"bufferView":2,"componentType":5126,"count":324,"max":[0.24349229037761688,1.0038468837738037],"min":[0,-0.000030279159545898438],"type":"VEC2"},{"bufferView":3,"componentType":5123,"count":468,"max":[323],"min":[0],"type":"SCALAR"},{"bufferView":4,"componentType":5126,"count":336,"max":[3.029700517654419,18.8125,2.625],"min":[-3.779700517654419,5.75,-3.75],"type":"VEC3"},{"bufferView":5,"componentType":5126,"count":336,"max":[0.8792321085929871,0.6122586131095886,0.9970009326934814],"min":[-0.8792321085929871,-0.7195038795471191,-0.9970009326934814],"type":"VEC3"},{"bufferView":6,"componentType":5126,"count":336,"max":[0.6585254073143005,0.5112960934638977],"min":[0.50390625,0],"type":"VEC2"},{"bufferView":7,"componentType":5123,"count":432,"max":[335],"min":[0],"type":"SCALAR"},{"bufferView":8,"componentType":5126,"count":40,"max":[3.2785215377807617,17.4375,2.586467742919922],"min":[-3.95304012298584,5.936817646026611,-3.8707590103149414],"type":"VEC3"},{"bufferView":9,"componentType":5126,"count":40,"max":[0.7127658724784851,0.04295670986175537,1],"min":[-1,-0.1736481785774231,-0.7071067690849304],"type":"VEC3"},{"bufferView":10,"componentType":5126,"count":40,"max":[1,0.5],"min":[0.8125,0],"type":"VEC2"},{"bufferView":11,"componentType":5123,"count":60,"max":[39],"min":[0],"type":"SCALAR"},{"bufferView":12,"componentType":5126,"count":700,"max":[3.2785215377807617,18.8125,2.625],"min":[-3.95304012298584,-8.881784197001252e-16,-3.8707590103149414],"type":"VEC3"},{"bufferView":13,"componentType":5126,"count":700,"max":[1,1,1],"min":[-1,-1,-1],"type":"VEC3"},{"bufferView":14,"componentType":5126,"count":700,"max":[1,1.0038468837738037],"min":[0,-0.000030279159545898438],"type":"VEC2"},{"bufferView":15,"componentType":5123,"count":60,"max":[39],"min":[0],"type":"SCALAR"},{"bufferView":16,"componentType":5123,"count":468,"max":[363],"min":[40],"type":"SCALAR"},{"bufferView":17,"componentType":5123,"count":432,"max":[699],"min":[364],"type":"SCALAR"}],"materials":[{"pbrMetallicRoughness":{"metallicFactor":0,"roughnessFactor":1,"baseColorTexture":{"index":0}},"alphaMode":"MASK","alphaCutoff":0.05,"doubleSided":true},{"pbrMetallicRoughness":{"metallicFactor":0,"roughnessFactor":1,"baseColorTexture":{"index":1}},"alphaMode":"MASK","alphaCutoff":0.05,"doubleSided":true}],"textures":[{"sampler":0,"source":0,"name":"tree_tex.png"},{"sampler":1,"source":1,"name":"tree_tex_l.png"}],"samplers":[{"magFilter":9728,"minFilter":9728,"wrapS":10497,"wrapT":10497},{"magFilter":9728,"minFilter":9728,"wrapS":10497,"wrapT":10497}],"images":[{"mimeType":"image/png","uri":"data:image/png;base64,"},{"mimeType":"image/png","uri":"data:image/png;base64,"}],"meshes":[{"primitives":[{"mode":4,"attributes":{"POSITION":0,"NORMAL":1,"TEXCOORD_0":2},"indices":3,"material":0}]},{"primitives":[{"mode":4,"attributes":{"POSITION":4,"NORMAL":5,"TEXCOORD_0":6},"indices":7,"material":1}]},{"primitives":[{"mode":4,"attributes":{"POSITION":8,"NORMAL":9,"TEXCOORD_0":10},"indices":11,"material":1}]},{"primitives":[{"mode":4,"attributes":{"POSITION":12,"NORMAL":13,"TEXCOORD_0":14},"indices":15,"material":1},{"mode":4,"attributes":{"POSITION":12,"NORMAL":13,"TEXCOORD_0":14},"indices":16,"material":0},{"mode":4,"attributes":{"POSITION":12,"NORMAL":13,"TEXCOORD_0":14},"indices":17,"material":1}]}]}