{"asset":{"version":"2.0","generator":"Blockbench 5.0.7 glTF exporter"},"scenes":[{"nodes":[0,1,2,3],"name":"blockbench_export"}],"scene":0,"nodes":[{"name":"Trunk","mesh":0},{"rotation":[0,-0.1521233861899167,0,0.9883615104677607],"translation":[0,-0.5,0],"name":"Leaves","mesh":1},{"translation":[0,-0.5,0],"name":"Branches","mesh":2},{"name":"FullTree","mesh":3}],"bufferViews":[{"buffer":0,"byteOffset":0,"byteLength":2160,"target":34962,"byteStride":12},{"buffer":0,"byteOffset":2160,"byteLength":2160,"target":34962,"byteStride":12},{"buffer":0,"byteOffset":4320,"byteLength":1440,"target":34962,"byteStride":8},{"buffer":0,"byteOffset":5760,"byteLength":432,"target":34963},{"buffer":0,"byteOffset":6192,"byteLength":2256,"target":34962,"byteStride":12},{"buffer":0,"byteOffset":8448,"byteLength":2256,"target":34962,"byteStride":12},{"buffer":0,"byteOffset":10704,"byteLength":1504,"target":34962,"byteStride":8},{"buffer":0,"byteOffset":12208,"byteLength":384,"target":34963},{"buffer":0,"byteOffset":12592,"byteLength":2160,"target":34962,"byteStride":12},{"buffer":0,"byteOffset":14752,"byteLength":2160,"target":34962,"byteStride":12},{"buffer":0,"byteOffset":16912,"byteLength":1440,"target":34962,"byteStride":8},{"buffer":0,"byteOffset":18352,"byteLength":360,"target":34963},{"buffer":0,"byteOffset":18712,"byteLength":6576,"target":34962,"byteStride":12},{"buffer":0,"byteOffset":25288,"byteLength":6576,"target":34962,"byteStride":12},{"buffer":0,"byteOffset":31864,"byteLength":4384,"target":34962,"byteStride":8},{"buffer":0,"byteOffset":36248,"byteLength":432,"target":34963},{"buffer":0,"byteOffset":36680,"byteLength":744,"target":34963}],"buffers":[{"byteLength":37424,"uri":"data:application/octet-stream;base64,"}],"accessors":[{"bufferView":0,"componentType":5126,"count":180,"max":[1.0148502588272095,16,0.9375],"min":[-1.0148502588272095,0,-0.9375],"type":"VEC3"},{"bufferView":1,"componentType":5126,"count":180,"max":[0.9792613983154297,0.2244568020105362,1],"min":[-0.9777421355247498,-1,-0.9998779296875],"type":"VEC3"},{"bufferView":2,"componentType":5126,"count":180,"max":[0.48435789346694946,1.0077672004699707],"min":[0.0625,0],"type":"VEC2"},{"bufferView":3,"componentType":5123,"count":216,"max":[179],"min":[0],"type":"SCALAR"},{"bufferView":4,"componentType":5126,"count":188,"max":[3.6726832389831543,16.4375,3.375],"min":[-3.6898193359375,2.543332815170288,-3.375],"type":"VEC3"},{"bufferView":5,"componentType":5126,"count":188,"max":[0.9537169337272644,0.849600613117218,0.9537169337272644],"min":[-0.6817987561225891,5.812749042153855e-17,-0.7432941198348999],"type":"VEC3"},{"bufferView":6,"componentType":5126,"count":188,"max":[0.8125,0.8515625],"min":[0.5390625,0.0390625],"type":"VEC2"},{"bufferView":7,"componentType":5123,"count":192,"max":[187],"min":[0],"type":"SCALAR"},{"bufferView":8,"componentType":5126,"count":180,"max":[3.6726832389831543,15.25,3.375],"min":[-3.6898193359375,2.480832815170288,-3.375],"type":"VEC3"},{"bufferView":9,"componentType":5126,"count":180,"max":[0.7138705849647522,0.849600613117218,0.777527391910553],"min":[-0.6623756289482117,0.6288490295410156,-0.7432941198348999],"type":"VEC3"},{"bufferView":10,"componentType":5126,"count":180,"max":[1,0.5234375],"min":[0.78515625,0.125],"type":"VEC2"},{"bufferView":11,"componentType":5123,"count":180,"max":[179],"min":[0],"type":"SCALAR"},{"bufferView":12,"componentType":5126,"count":548,"max":[3.6726832389831543,16,3.769705057144165],"min":[-3.6898193359375,0,-3.774857997894287],"type":"VEC3"},{"bufferView":13,"componentType":5126,"count":548,"max":[1,0.849600613117218,1],"min":[-0.9777421355247498,-1,-0.9998779296875],"type":"VEC3"},{"bufferView":14,"componentType":5126,"count":548,"max":[1,1.0077672004699707],"min":[0.0625,0],"type":"VEC2"},{"bufferView":15,"componentType":5123,"count":216,"max":[179],"min":[0],"type":"SCALAR"},{"bufferView":16,"componentType":5123,"count":372,"max":[547],"min":[180],"type":"SCALAR"}],"materials":[{"pbrMetallicRoughness":{"metallicFactor":0,"roughnessFactor":1,"baseColorTexture":{"index":0}},"alphaMode":"MASK","alphaCutoff":0.05,"doubleSided":true},{"pbrMetallicRoughness":{"metallicFactor":0,"roughnessFactor":1,"baseColorTexture":{"index":1}},"alphaMode":"MASK","alphaCutoff":0.05,"doubleSided":true}],"textures":[{"sampler":0,"source":0,"name":"tree_tex.png"},{"sampler":1,"source":1,"name":"tree_tex_l.png"}],"samplers":[{"magFilter":9728,"minFilter":9728,"wrapS":33071,"wrapT":33071},{"magFilter":9728,"minFilter":9728,"wrapS":33071,"wrapT":33071}],"images":[{"mimeType":"image/png","uri":"data:image/png;base64,"},{"mimeType":"image/png","uri":"data:image/png;base64,"}],"meshes":[{"primitives":[{"mode":4,"attributes":{"POSITION":0,"NORMAL":1,"TEXCOORD_0":2},"indices":3,"material":0}]},{"primitives":[{"mode":4,"attributes":{"POSITION":4,"NORMAL":5,"TEXCOORD_0":6},"indices":7,"material":1}]},{"primitives":[{"mode":4,"attributes":{"POSITION":8,"NORMAL":9,"TEXCOORD_0":10},"indices":11,"material":1}]},{"primitives":[{"mode":4,"attributes":{"POSITION":12,"NORMAL":13,"TEXCOORD_0":14},"indices":15,"material":0},{"mode":4,"attributes":{"POSITION":12,"NORMAL":13,"TEXCOORD_0":14},"indices":16,"material":1}]}]}