{"asset":{"version":"2.0","generator":"Blockbench 5.0.7 glTF exporter"},"scenes":[{"nodes":[25],"name":"blockbench_export"}],"scene":0,"nodes":[{"rotation":[0.08715574274765818,0,0,0.9961946980917455],"translation":[0.09375,0.5,-0.02031250000000001],"name":"antennae_l"},{"rotation":[0.08715574274765818,0,0,0.9961946980917455],"translation":[-0.09375,0.5,-0.02031250000000001],"name":"antennae_r"},{"translation":[0,0.5625,0],"name":"head","children":[0,1]},{"rotation":[0.6427876096865396,0,0,0.7660444431189778],"translation":[0,0.5,0],"name":"throrax","children":[2]},{"translation":[0,0.5,0],"name":"abdomen_4"},{"rotation":[-0.043619387365336,0,0,0.9990482215818578],"translation":[0,0.5,0],"name":"abdomen_3","children":[4]},{"rotation":[-0.08715574274765821,0,0,0.9961946980917455],"translation":[0,0.5,0],"name":"abdomen_2","children":[5]},{"rotation":[-0.6259234721840594,0,0,0.7798844830928815],"translation":[0,0.5,0],"name":"abdomen_1","children":[6]},{"rotation":[-0.7064337722128926,-0.030843564597231872,-0.030843564597231924,0.7064337722128916],"translation":[0.0625,0.8125,0],"name":"overwing_l"},{"rotation":[-0.7064337722128926,0.030843564597231872,0.030843564597231924,0.7064337722128916],"translation":[-0.0625,0.8125,0],"name":"overwing_r"},{"rotation":[-0.7125715927699469,-0.03111154763015611,-0.030573232707447898,0.7002421539890139],"translation":[0.0625,0.78125,0],"name":"underwing_l"},{"rotation":[-0.7125715927699469,0.03111154763015611,0.030573232707447898,0.7002421539890139],"translation":[-0.0625,0.78125,0],"name":"underwing_r"},{"rotation":[-1.4455278279992058e-17,-9.938003817494508e-18,-0.27982901403099175,0.9600498543859287],"translation":[0,0.4375,0],"name":"front_shin_l"},{"rotation":[0.15304591873303092,-0.1530459187330308,-0.6903455270798544,0.6903455270798551],"translation":[0.1875,0.28125,0.421875],"name":"front_leg_l","children":[12]},{"rotation":[0,0,-0.2798290140309919,0.9600498543859287],"translation":[0,0.4375,0],"name":"middle_shin_l"},{"rotation":[-0.13794968964147142,0.13794968964147233,-0.6935199226610727,0.6935199226610747],"translation":[0.1875,0.28125,0.265625],"name":"middle_leg_l","children":[14]},{"rotation":[-0.46042796199219926,-0.4381177377414966,-0.5150143209785728,0.5751688351075384],"translation":[-0.7500000000000009,0.23110172956286124,-0.6532832604406329],"name":"back_shin_l"},{"rotation":[-0.06162841671621935,0.061628416716220026,-0.7044160264027575,0.7044160264027598],"translation":[0.375,0.28125,0.015625],"name":"back_leg_l","children":[16]},{"rotation":[-1.4455278279992058e-17,9.938003817494508e-18,0.27982901403099175,0.9600498543859287],"translation":[0,0.4375,0],"name":"front_shin_r"},{"rotation":[0.15304591873303092,0.1530459187330308,0.6903455270798544,0.6903455270798551],"translation":[-0.1875,0.28125,0.421875],"name":"front_leg_r","children":[18]},{"rotation":[0,0,0.2798290140309919,0.9600498543859287],"translation":[0,0.4375,0],"name":"middle_shin_r"},{"rotation":[-0.13794968964147142,-0.13794968964147233,0.6935199226610727,0.6935199226610747],"translation":[-0.1875,0.28125,0.265625],"name":"middle_leg_r","children":[20]},{"rotation":[-0.46042796199219926,0.4381177377414966,0.5150143209785728,0.5751688351075384],"translation":[0.7500000000000009,0.23110172956286124,-0.6532832604406329],"name":"back_shin_r"},{"rotation":[-0.06162841671621935,-0.061628416716220026,0.7044160264027575,0.7044160264027598],"translation":[-0.375,0.28125,0.015625],"name":"back_leg_r","children":[22]},{"name":"root","children":[3,7,8,9,10,11,13,15,17,19,21,23]},{"name":"armature","mesh":0,"children":[24],"skin":0}],"bufferViews":[{"buffer":0,"byteOffset":0,"byteLength":8328,"target":34962,"byteStride":12},{"buffer":0,"byteOffset":8328,"byteLength":8328,"target":34962,"byteStride":12},{"buffer":0,"byteOffset":16656,"byteLength":5552,"target":34962,"byteStride":8},{"buffer":0,"byteOffset":22208,"byteLength":5552,"target":34962,"byteStride":8},{"buffer":0,"byteOffset":27760,"byteLength":11104,"target":34962,"byteStride":16},{"buffer":0,"byteOffset":38864,"byteLength":1848,"target":34963},{"buffer":0,"byteOffset":40712,"byteLength":1600},{"buffer":0,"byteOffset":42312,"byteLength":232},{"buffer":0,"byteOffset":42544,"byteLength":696},{"buffer":0,"byteOffset":43240,"byteLength":228},{"buffer":0,"byteOffset":43468,"byteLength":684},{"buffer":0,"byteOffset":44152,"byteLength":228},{"buffer":0,"byteOffset":44380,"byteLength":684},{"buffer":0,"byteOffset":45064,"byteLength":228},{"buffer":0,"byteOffset":45292,"byteLength":684},{"buffer":0,"byteOffset":45976,"byteLength":228},{"buffer":0,"byteOffset":46204,"byteLength":684},{"buffer":0,"byteOffset":46888,"byteLength":232},{"buffer":0,"byteOffset":47120,"byteLength":696},{"buffer":0,"byteOffset":47816,"byteLength":228},{"buffer":0,"byteOffset":48044,"byteLength":912},{"buffer":0,"byteOffset":48956,"byteLength":224},{"buffer":0,"byteOffset":49180,"byteLength":896},{"buffer":0,"byteOffset":50076,"byteLength":232},{"buffer":0,"byteOffset":50308,"byteLength":928},{"buffer":0,"byteOffset":51236,"byteLength":224},{"buffer":0,"byteOffset":51460,"byteLength":896},{"buffer":0,"byteOffset":52356,"byteLength":188},{"buffer":0,"byteOffset":52544,"byteLength":752},{"buffer":0,"byteOffset":53296,"byteLength":232},{"buffer":0,"byteOffset":53528,"byteLength":696},{"buffer":0,"byteOffset":54224,"byteLength":232},{"buffer":0,"byteOffset":54456,"byteLength":928},{"buffer":0,"byteOffset":55384,"byteLength":232},{"buffer":0,"byteOffset":55616,"byteLength":928},{"buffer":0,"byteOffset":56544,"byteLength":232},{"buffer":0,"byteOffset":56776,"byteLength":696},{"buffer":0,"byteOffset":57472,"byteLength":232},{"buffer":0,"byteOffset":57704,"byteLength":928},{"buffer":0,"byteOffset":58632,"byteLength":232},{"buffer":0,"byteOffset":58864,"byteLength":928},{"buffer":0,"byteOffset":59792,"byteLength":232},{"buffer":0,"byteOffset":60024,"byteLength":696},{"buffer":0,"byteOffset":60720,"byteLength":232},{"buffer":0,"byteOffset":60952,"byteLength":928},{"buffer":0,"byteOffset":61880,"byteLength":232},{"buffer":0,"byteOffset":62112,"byteLength":928},{"buffer":0,"byteOffset":63040,"byteLength":232},{"buffer":0,"byteOffset":63272,"byteLength":696},{"buffer":0,"byteOffset":63968,"byteLength":232},{"buffer":0,"byteOffset":64200,"byteLength":928},{"buffer":0,"byteOffset":65128,"byteLength":232},{"buffer":0,"byteOffset":65360,"byteLength":928},{"buffer":0,"byteOffset":66288,"byteLength":232},{"buffer":0,"byteOffset":66520,"byteLength":696},{"buffer":0,"byteOffset":67216,"byteLength":232},{"buffer":0,"byteOffset":67448,"byteLength":928},{"buffer":0,"byteOffset":68376,"byteLength":232},{"buffer":0,"byteOffset":68608,"byteLength":928},{"buffer":0,"byteOffset":69536,"byteLength":232},{"buffer":0,"byteOffset":69768,"byteLength":696},{"buffer":0,"byteOffset":70464,"byteLength":232},{"buffer":0,"byteOffset":70696,"byteLength":928},{"buffer":0,"byteOffset":71624,"byteLength":232},{"buffer":0,"byteOffset":71856,"byteLength":928},{"buffer":0,"byteOffset":72784,"byteLength":224},{"buffer":0,"byteOffset":73008,"byteLength":896},{"buffer":0,"byteOffset":73904,"byteLength":188},{"buffer":0,"byteOffset":74092,"byteLength":752},{"buffer":0,"byteOffset":74844,"byteLength":208},{"buffer":0,"byteOffset":75052,"byteLength":832}],"buffers":[{"byteLength":75884,"uri":"data:application/octet-stream;base64,"}],"accessors":[{"bufferView":0,"componentType":5126,"count":694,"max":[1.0560158491134644,1.076745629310608,1.96875],"min":[-1.0560158491134644,-0.0024903216399252415,-1.6875],"type":"VEC3"},{"bufferView":1,"componentType":5126,"count":694,"max":[1,1,1],"min":[-1,-1,-1],"type":"VEC3"},{"bufferView":2,"componentType":5126,"count":694,"max":[1,1],"min":[0.01171875,0.012760818004608154],"type":"VEC2"},{"bufferView":3,"componentType":5123,"count":694,"max":[24,8,0,0],"min":[0,0,0,0],"type":"VEC4"},{"bufferView":4,"componentType":5126,"count":694,"max":[1,0.5,0,0],"min":[0,0,0,0],"type":"VEC4"},{"bufferView":5,"componentType":5123,"count":924,"max":[693],"min":[0],"type":"SCALAR"},{"bufferView":6,"componentType":5126,"count":25,"max":[1,0.9848077297210693,0.9993799924850464,0,1,1,1,0,0.9961947202682495,1,1,0,0.7615763545036316,0.954899787902832,0.7045050859451294,1],"min":[-0.4964001178741455,-0.9848077297210693,-0.9993799924850464,0,-1,-0.9958837032318115,-1,0,-0.9961947202682495,-0.9990482330322266,-0.04361938685178757,0,-0.7615763545036316,-1.459250569343567,-0.8125,1],"type":"MAT4"},{"bufferView":7,"componentType":5126,"count":58,"max":[3.5],"min":[0],"type":"SCALAR"},{"bufferView":8,"componentType":5126,"count":58,"max":[0,0.5,0],"min":[0,0.4375,0],"type":"VEC3"},{"bufferView":9,"componentType":5126,"count":57,"max":[3.5],"min":[0],"type":"SCALAR"},{"bufferView":10,"componentType":5126,"count":57,"max":[1,1,1],"min":[1,0.9775000214576721,1],"type":"VEC3"},{"bufferView":11,"componentType":5126,"count":57,"max":[3.5],"min":[0],"type":"SCALAR"},{"bufferView":12,"componentType":5126,"count":57,"max":[1,1,1],"min":[1,0.9325000047683716,1],"type":"VEC3"},{"bufferView":13,"componentType":5126,"count":57,"max":[3.5],"min":[0],"type":"SCALAR"},{"bufferView":14,"componentType":5126,"count":57,"max":[1,1,1],"min":[1,0.9225000143051147,1],"type":"VEC3"},{"bufferView":15,"componentType":5126,"count":57,"max":[3.5],"min":[0],"type":"SCALAR"},{"bufferView":16,"componentType":5126,"count":57,"max":[1,1,1],"min":[1,0.800000011920929,1],"type":"VEC3"},{"bufferView":17,"componentType":5126,"count":58,"max":[3.5],"min":[0],"type":"SCALAR"},{"bufferView":18,"componentType":5126,"count":58,"max":[0,0.5,0],"min":[0,0.4375,0],"type":"VEC3"},{"bufferView":19,"componentType":5126,"count":57,"max":[3.5],"min":[0],"type":"SCALAR"},{"bufferView":20,"componentType":5126,"count":57,"max":[0.6427876353263855,0,0,0.7798844575881958],"min":[0.6259234547615051,0,0,0.7660444378852844],"type":"VEC4"},{"bufferView":21,"componentType":5126,"count":56,"max":[3.5],"min":[0],"type":"SCALAR"},{"bufferView":22,"componentType":5126,"count":56,"max":[0.04998071864247322,0.024283066391944885,0.003972530830651522,1],"min":[-0.06540312618017197,-0.06476663053035736,-0.009102356620132923,0.997251033782959],"type":"VEC4"},{"bufferView":23,"componentType":5126,"count":58,"max":[3.4583332538604736],"min":[0],"type":"SCALAR"},{"bufferView":24,"componentType":5126,"count":58,"max":[-0.06961001455783844,0.06297026574611664,-0.03263642266392708,0.9856979250907898],"min":[-0.40906816720962524,-0.07756394147872925,-0.3283718228340149,0.887459933757782],"type":"VEC4"},{"bufferView":25,"componentType":5126,"count":56,"max":[3.5],"min":[0],"type":"SCALAR"},{"bufferView":26,"componentType":5126,"count":56,"max":[-0.6386154890060425,-0.027813883498311043,-0.027159079909324646,0.7618429660797119],"min":[-0.7106593251228333,-0.07812648266553879,-0.07549802213907242,0.7024406790733337],"type":"VEC4"},{"bufferView":27,"componentType":5126,"count":47,"max":[2.5833332538604736],"min":[0],"type":"SCALAR"},{"bufferView":28,"componentType":5126,"count":47,"max":[-0.6631952524185181,-0.02762017957866192,-0.02644314058125019,0.7433709502220154],"min":[-0.7184665203094482,-0.06152929738163948,-0.06152929738163948,0.694509744644165],"type":"VEC4"},{"bufferView":29,"componentType":5126,"count":58,"max":[3.5],"min":[0],"type":"SCALAR"},{"bufferView":30,"componentType":5126,"count":58,"max":[0.1875,0.28125,0.421875],"min":[0.1875,0.21875,0.421875],"type":"VEC3"},{"bufferView":31,"componentType":5126,"count":58,"max":[3.5],"min":[0],"type":"SCALAR"},{"bufferView":32,"componentType":5126,"count":58,"max":[0.17171308398246765,-0.13176009058952332,-0.5943313241004944,0.7745476961135864],"min":[0.1530459225177765,-0.1530459225177765,-0.6903455257415771,0.6903455257415771],"type":"VEC4"},{"bufferView":33,"componentType":5126,"count":58,"max":[3.5],"min":[0],"type":"SCALAR"},{"bufferView":34,"componentType":5126,"count":58,"max":[-1.4455278989384678e-17,-7.623354427931582e-18,-0.2798290252685547,0.9600498676300049],"min":[-1.5798843642936184e-17,-9.938003478021353e-18,-0.4226182699203491,0.9063078165054321],"type":"VEC4"},{"bufferView":35,"componentType":5126,"count":58,"max":[3.5],"min":[0],"type":"SCALAR"},{"bufferView":36,"componentType":5126,"count":58,"max":[0.1875,0.28125,0.265625],"min":[0.1875,0.21875,0.265625],"type":"VEC3"},{"bufferView":37,"componentType":5126,"count":58,"max":[3.5],"min":[0],"type":"SCALAR"},{"bufferView":38,"componentType":5126,"count":58,"max":[-0.13794969022274017,0.13794969022274017,-0.6304365992546082,0.7513251304626465],"min":[-0.14944785833358765,0.12540164589881897,-0.6935199499130249,0.6935199499130249],"type":"VEC4"},{"bufferView":39,"componentType":5126,"count":58,"max":[3.5],"min":[0],"type":"SCALAR"},{"bufferView":40,"componentType":5126,"count":58,"max":[0,0,-0.2798290252685547,0.9600498676300049],"min":[0,0,-0.4226182699203491,0.9063078165054321],"type":"VEC4"},{"bufferView":41,"componentType":5126,"count":58,"max":[3.5],"min":[0],"type":"SCALAR"},{"bufferView":42,"componentType":5126,"count":58,"max":[0.375,0.28125,0.015625],"min":[0.375,0.21875,0.015625],"type":"VEC3"},{"bufferView":43,"componentType":5126,"count":58,"max":[3.5],"min":[0],"type":"SCALAR"},{"bufferView":44,"componentType":5126,"count":58,"max":[-0.030843565240502357,0.09229595214128494,-0.7010573744773865,0.7064337730407715],"min":[-0.06162841618061066,0.06162841618061066,-0.704416036605835,0.704416036605835],"type":"VEC4"},{"bufferView":45,"componentType":5126,"count":58,"max":[3.5],"min":[0],"type":"SCALAR"},{"bufferView":46,"componentType":5126,"count":58,"max":[-0.4411849081516266,-0.43811774253845215,-0.5150143504142761,0.5751688480377197],"min":[-0.4604279696941376,-0.4589206278324127,-0.5386592149734497,0.5519003868103027],"type":"VEC4"},{"bufferView":47,"componentType":5126,"count":58,"max":[3.5],"min":[0],"type":"SCALAR"},{"bufferView":48,"componentType":5126,"count":58,"max":[-0.1875,0.28125,0.421875],"min":[-0.1875,0.21875,0.421875],"type":"VEC3"},{"bufferView":49,"componentType":5126,"count":58,"max":[3.5],"min":[0],"type":"SCALAR"},{"bufferView":50,"componentType":5126,"count":58,"max":[0.16580235958099365,0.1530459225177765,0.6903455257415771,0.7478861212730408],"min":[0.1530459225177765,0.13912470638751984,0.6275509595870972,0.6903455257415771],"type":"VEC4"},{"bufferView":51,"componentType":5126,"count":58,"max":[3.5],"min":[0],"type":"SCALAR"},{"bufferView":52,"componentType":5126,"count":58,"max":[0.017990240827202797,0.061721719801425934,0.40893489122390747,0.9600498676300049],"min":[-1.4455278989384678e-17,9.938003478021353e-18,0.2798290252685547,0.9102961421012878],"type":"VEC4"},{"bufferView":53,"componentType":5126,"count":58,"max":[3.5],"min":[0],"type":"SCALAR"},{"bufferView":54,"componentType":5126,"count":58,"max":[-0.1875,0.28125,0.265625],"min":[-0.1875,0.21875,0.265625],"type":"VEC3"},{"bufferView":55,"componentType":5126,"count":58,"max":[3.5],"min":[0],"type":"SCALAR"},{"bufferView":56,"componentType":5126,"count":58,"max":[-0.13794969022274017,-0.12540164589881897,0.6935199499130249,0.7513251304626465],"min":[-0.14944785833358765,-0.13794969022274017,0.6304365992546082,0.6935199499130249],"type":"VEC4"},{"bufferView":57,"componentType":5126,"count":58,"max":[3.5],"min":[0],"type":"SCALAR"},{"bufferView":58,"componentType":5126,"count":58,"max":[0,0,0.4115011692047119,0.9600498676300049],"min":[-0.016290273517370224,-0.055889397859573364,0.2798290252685547,0.9095481038093567],"type":"VEC4"},{"bufferView":59,"componentType":5126,"count":58,"max":[3.5],"min":[0],"type":"SCALAR"},{"bufferView":60,"componentType":5126,"count":58,"max":[-0.375,0.28125,0.015625],"min":[-0.375,0.21875,0.015625],"type":"VEC3"},{"bufferView":61,"componentType":5126,"count":58,"max":[3.5],"min":[0],"type":"SCALAR"},{"bufferView":62,"componentType":5126,"count":58,"max":[-0.030843565240502357,-0.06162841618061066,0.704416036605835,0.7064337730407715],"min":[-0.06162841618061066,-0.09229595214128494,0.7010573744773865,0.704416036605835],"type":"VEC4"},{"bufferView":63,"componentType":5126,"count":58,"max":[3.5],"min":[0],"type":"SCALAR"},{"bufferView":64,"componentType":5126,"count":58,"max":[-0.4411849081516266,0.4589206278324127,0.5386592149734497,0.5751688480377197],"min":[-0.4604279696941376,0.43811774253845215,0.5150143504142761,0.5519003868103027],"type":"VEC4"},{"bufferView":65,"componentType":5126,"count":56,"max":[3.5],"min":[0],"type":"SCALAR"},{"bufferView":66,"componentType":5126,"count":56,"max":[-0.6389670968055725,0.0702492743730545,0.08344507217407227,0.7614913582801819],"min":[-0.7064616084098816,0.027471335604786873,0.027413727715611458,0.7064337730407715],"type":"VEC4"},{"bufferView":67,"componentType":5126,"count":47,"max":[2.5833332538604736],"min":[0],"type":"SCALAR"},{"bufferView":68,"componentType":5126,"count":47,"max":[-0.6779814958572388,0.07340624183416367,0.08039063215255737,0.7269731163978577],"min":[-0.7166588306427002,0.02614905685186386,0.024088578298687935,0.6965171098709106],"type":"VEC4"},{"bufferView":69,"componentType":5126,"count":52,"max":[3.2916667461395264],"min":[0],"type":"SCALAR"},{"bufferView":70,"componentType":5126,"count":52,"max":[-0.07487598061561584,0.20103901624679565,0.19324731826782227,0.9810823798179626],"min":[-0.6041699647903442,0.0714075118303299,0.04024404287338257,0.7785469889640808],"type":"VEC4"}],"materials":[{"pbrMetallicRoughness":{"metallicFactor":0,"roughnessFactor":1,"baseColorTexture":{"index":0}},"alphaMode":"MASK","alphaCutoff":0.05,"doubleSided":true}],"textures":[{"sampler":0,"source":0,"name":"grasshopper.png"}],"samplers":[{"magFilter":9728,"minFilter":9728,"wrapS":10497,"wrapT":10497}],"images":[{"mimeType":"image/png","uri":"data:image/png;base64,"}],"meshes":[{"primitives":[{"mode":4,"attributes":{"POSITION":0,"NORMAL":1,"TEXCOORD_0":2,"JOINTS_0":3,"WEIGHTS_0":4},"indices":5,"material":0}]}],"skins":[{"inverseBindMatrices":6,"joints":[24,3,2,0,1,7,6,5,4,8,9,10,11,13,12,15,14,17,16,19,18,21,20,23,22],"skeleton":24}],"animations":[{"name":"idle","samplers":[{"input":7,"output":8,"interpolation":"LINEAR"},{"input":9,"output":10,"interpolation":"LINEAR"},{"input":11,"output":12,"interpolation":"LINEAR"},{"input":13,"output":14,"interpolation":"LINEAR"},{"input":15,"output":16,"interpolation":"LINEAR"},{"input":17,"output":18,"interpolation":"LINEAR"},{"input":19,"output":20,"interpolation":"LINEAR"},{"input":21,"output":22,"interpolation":"LINEAR"},{"input":23,"output":24,"interpolation":"LINEAR"},{"input":25,"output":26,"interpolation":"LINEAR"},{"input":27,"output":28,"interpolation":"LINEAR"},{"input":29,"output":30,"interpolation":"LINEAR"},{"input":31,"output":32,"interpolation":"LINEAR"},{"input":33,"output":34,"interpolation":"LINEAR"},{"input":35,"output":36,"interpolation":"LINEAR"},{"input":37,"output":38,"interpolation":"LINEAR"},{"input":39,"output":40,"interpolation":"LINEAR"},{"input":41,"output":42,"interpolation":"LINEAR"},{"input":43,"output":44,"interpolation":"LINEAR"},{"input":45,"output":46,"interpolation":"LINEAR"},{"input":47,"output":48,"interpolation":"LINEAR"},{"input":49,"output":50,"interpolation":"LINEAR"},{"input":51,"output":52,"interpolation":"LINEAR"},{"input":53,"output":54,"interpolation":"LINEAR"},{"input":55,"output":56,"interpolation":"LINEAR"},{"input":57,"output":58,"interpolation":"LINEAR"},{"input":59,"output":60,"interpolation":"LINEAR"},{"input":61,"output":62,"interpolation":"LINEAR"},{"input":63,"output":64,"interpolation":"LINEAR"},{"input":65,"output":66,"interpolation":"LINEAR"},{"input":67,"output":68,"interpolation":"LINEAR"},{"input":69,"output":70,"interpolation":"LINEAR"}],"channels":[{"sampler":0,"target":{"node":7,"path":"translation"}},{"sampler":1,"target":{"node":7,"path":"scale"}},{"sampler":2,"target":{"node":6,"path":"scale"}},{"sampler":3,"target":{"node":5,"path":"scale"}},{"sampler":4,"target":{"node":4,"path":"scale"}},{"sampler":5,"target":{"node":3,"path":"translation"}},{"sampler":6,"target":{"node":3,"path":"rotation"}},{"sampler":7,"target":{"node":2,"path":"rotation"}},{"sampler":8,"target":{"node":0,"path":"rotation"}},{"sampler":9,"target":{"node":8,"path":"rotation"}},{"sampler":10,"target":{"node":10,"path":"rotation"}},{"sampler":11,"target":{"node":13,"path":"translation"}},{"sampler":12,"target":{"node":13,"path":"rotation"}},{"sampler":13,"target":{"node":12,"path":"rotation"}},{"sampler":14,"target":{"node":15,"path":"translation"}},{"sampler":15,"target":{"node":15,"path":"rotation"}},{"sampler":16,"target":{"node":14,"path":"rotation"}},{"sampler":17,"target":{"node":17,"path":"translation"}},{"sampler":18,"target":{"node":17,"path":"rotation"}},{"sampler":19,"target":{"node":16,"path":"rotation"}},{"sampler":20,"target":{"node":19,"path":"translation"}},{"sampler":21,"target":{"node":19,"path":"rotation"}},{"sampler":22,"target":{"node":18,"path":"rotation"}},{"sampler":23,"target":{"node":21,"path":"translation"}},{"sampler":24,"target":{"node":21,"path":"rotation"}},{"sampler":25,"target":{"node":20,"path":"rotation"}},{"sampler":26,"target":{"node":23,"path":"translation"}},{"sampler":27,"target":{"node":23,"path":"rotation"}},{"sampler":28,"target":{"node":22,"path":"rotation"}},{"sampler":29,"target":{"node":9,"path":"rotation"}},{"sampler":30,"target":{"node":11,"path":"rotation"}},{"sampler":31,"target":{"node":1,"path":"rotation"}}]}]}