{"asset":{"version":"2.0","generator":"Blockbench 5.0.7 glTF exporter"},"scenes":[{"nodes":[0,1,2],"name":"blockbench_export"}],"scene":0,"nodes":[{"name":"Leaves","mesh":0},{"name":"Trunk","mesh":1},{"name":"Full","mesh":2}],"bufferViews":[{"buffer":0,"byteOffset":0,"byteLength":5040,"target":34962,"byteStride":12},{"buffer":0,"byteOffset":5040,"byteLength":5040,"target":34962,"byteStride":12},{"buffer":0,"byteOffset":10080,"byteLength":3360,"target":34962,"byteStride":8},{"buffer":0,"byteOffset":13440,"byteLength":840,"target":34963},{"buffer":0,"byteOffset":14280,"byteLength":44424,"target":34962,"byteStride":12},{"buffer":0,"byteOffset":58704,"byteLength":44424,"target":34962,"byteStride":12},{"buffer":0,"byteOffset":103128,"byteLength":29616,"target":34962,"byteStride":8},{"buffer":0,"byteOffset":132744,"byteLength":7404,"target":34963},{"buffer":0,"byteOffset":140148,"byteLength":49464,"target":34962,"byteStride":12},{"buffer":0,"byteOffset":189612,"byteLength":49464,"target":34962,"byteStride":12},{"buffer":0,"byteOffset":239076,"byteLength":32976,"target":34962,"byteStride":8},{"buffer":0,"byteOffset":272052,"byteLength":840,"target":34963},{"buffer":0,"byteOffset":272892,"byteLength":7404,"target":34963}],"buffers":[{"byteLength":280296,"uri":"data:application/octet-stream;base64,"}],"accessors":[{"bufferView":0,"componentType":5126,"count":420,"max":[1.3332158327102661,6.19313383102417,2.080254554748535],"min":[-2.605304479598999,2.703896999359131,-2.61458420753479],"type":"VEC3"},{"bufferView":1,"componentType":5126,"count":420,"max":[0.9946771264076233,0.9934373497962952,0.9764124155044556],"min":[-0.9946771860122681,-0.9934372901916504,-0.9764124155044556],"type":"VEC3"},{"bufferView":2,"componentType":5126,"count":420,"max":[1,1],"min":[0,0.5276179909706116],"type":"VEC2"},{"bufferView":3,"componentType":5123,"count":420,"max":[419],"min":[0],"type":"SCALAR"},{"bufferView":4,"componentType":5126,"count":3702,"max":[1.1217539310455322,5.791379451751709,1.8772153854370117],"min":[-2.1105823516845703,-0.007347604725509882,-2.2886033058166504],"type":"VEC3"},{"bufferView":5,"componentType":5126,"count":3702,"max":[0.9984063506126404,0.9963478446006775,1],"min":[-0.9999931454658508,-0.9999866485595703,-1],"type":"VEC3"},{"bufferView":6,"componentType":5126,"count":3702,"max":[1.9375,2],"min":[-0.1875,-1],"type":"VEC2"},{"bufferView":7,"componentType":5123,"count":3702,"max":[3701],"min":[0],"type":"SCALAR"},{"bufferView":8,"componentType":5126,"count":4122,"max":[1.3361918926239014,6.191603660583496,2.080254554748535],"min":[-2.6020050048828125,-0.009812932461500168,-2.61458420753479],"type":"VEC3"},{"bufferView":9,"componentType":5126,"count":4122,"max":[0.9983600378036499,0.9964179396629333,1],"min":[-0.9999958276748657,-0.9999820590019226,-1],"type":"VEC3"},{"bufferView":10,"componentType":5126,"count":4122,"max":[1.9375,2],"min":[-0.1875,-1],"type":"VEC2"},{"bufferView":11,"componentType":5123,"count":420,"max":[419],"min":[0],"type":"SCALAR"},{"bufferView":12,"componentType":5123,"count":3702,"max":[4121],"min":[420],"type":"SCALAR"}],"materials":[{"pbrMetallicRoughness":{"metallicFactor":0,"roughnessFactor":1},"alphaMode":"MASK","alphaCutoff":0.05,"doubleSided":true},{"pbrMetallicRoughness":{"metallicFactor":0,"roughnessFactor":1,"baseColorTexture":{"index":0}},"alphaMode":"MASK","alphaCutoff":0.05,"doubleSided":true}],"meshes":[{"primitives":[{"mode":4,"attributes":{"POSITION":0,"NORMAL":1,"TEXCOORD_0":2},"indices":3,"material":0}]},{"primitives":[{"mode":4,"attributes":{"POSITION":4,"NORMAL":5,"TEXCOORD_0":6},"indices":7,"material":1}]},{"primitives":[{"mode":4,"attributes":{"POSITION":8,"NORMAL":9,"TEXCOORD_0":10},"indices":11,"material":0},{"mode":4,"attributes":{"POSITION":8,"NORMAL":9,"TEXCOORD_0":10},"indices":12,"material":1}]}],"textures":[{"sampler":0,"source":0}],"samplers":[{"magFilter":9728,"minFilter":9728,"wrapS":10497,"wrapT":10497}],"images":[{"mimeType":"image/png","uri":"data:image/png;base64,"}]}